<mxfile host="app.diagrams.net" agent="Mozilla/5.0 (Macintosh; Intel Mac OS X 10_15_7) AppleWebKit/605.1.15 (KHTML, like Gecko) Version/17.6 Safari/605.1.15" version="24.7.17">
  <diagram id="2NLk6kT1LeRtpD3JBzhc" name="Page-1">
    <mxGraphModel dx="724" dy="846" grid="1" gridSize="10" guides="1" tooltips="1" connect="1" arrows="1" fold="1" page="1" pageScale="1" pageWidth="850" pageHeight="1100" math="0" shadow="0">
      <root>
        <mxCell id="0" />
        <mxCell id="1" parent="0" />
        <mxCell id="XHbNjHFwVEkmWZbRaQx7-80" value="" style="rounded=0;whiteSpace=wrap;html=1;shadow=0;glass=0;labelBackgroundColor=none;sketch=0;fontFamily=Courier New;fontSize=13;strokeColor=#000000;fillColor=default;gradientColor=none;align=left;verticalAlign=top;" parent="1" vertex="1">
          <mxGeometry x="25" y="149.99999999999994" width="800" height="760" as="geometry" />
        </mxCell>
        <mxCell id="XHbNjHFwVEkmWZbRaQx7-81" value="&lt;div style=&quot;font-size: 19px&quot;&gt;&lt;font style=&quot;font-size: 19px&quot;&gt;&lt;b&gt;BRISE database schema&lt;/b&gt;&lt;/font&gt;&lt;/div&gt;&lt;div style=&quot;font-size: 19px&quot;&gt;&lt;font style=&quot;font-size: 19px&quot;&gt;&lt;b&gt;&lt;br&gt;&lt;/b&gt;&lt;/font&gt;&lt;/div&gt;" style="rounded=0;whiteSpace=wrap;html=1;shadow=0;glass=0;labelBackgroundColor=none;sketch=0;fontFamily=Helvetica;fontSize=13;strokeColor=#000000;fillColor=default;gradientColor=none;align=center;verticalAlign=middle;" parent="1" vertex="1">
          <mxGeometry x="25" y="80" width="800" height="70" as="geometry" />
        </mxCell>
        <mxCell id="XHbNjHFwVEkmWZbRaQx7-50" style="edgeStyle=orthogonalEdgeStyle;rounded=0;orthogonalLoop=1;jettySize=auto;html=1;exitX=0;exitY=0.355;exitDx=0;exitDy=0;entryX=0;entryY=0.067;entryDx=0;entryDy=0;entryPerimeter=0;fontFamily=Courier New;fontSize=13;exitPerimeter=0;" parent="1" source="XHbNjHFwVEkmWZbRaQx7-40" target="XHbNjHFwVEkmWZbRaQx7-46" edge="1">
          <mxGeometry relative="1" as="geometry" />
        </mxCell>
        <mxCell id="XHbNjHFwVEkmWZbRaQx7-70" value="" style="endArrow=classic;html=1;rounded=0;fontFamily=Courier New;fontSize=13;edgeStyle=orthogonalEdgeStyle;entryX=-0.004;entryY=0.072;entryDx=0;entryDy=0;entryPerimeter=0;" parent="1" target="XHbNjHFwVEkmWZbRaQx7-37" edge="1">
          <mxGeometry width="50" height="50" relative="1" as="geometry">
            <mxPoint x="427" y="815.5" as="sourcePoint" />
            <mxPoint x="496.1600000000001" y="224.78999999999996" as="targetPoint" />
            <Array as="points">
              <mxPoint x="427" y="225" />
            </Array>
          </mxGeometry>
        </mxCell>
        <mxCell id="XHbNjHFwVEkmWZbRaQx7-74" style="edgeStyle=orthogonalEdgeStyle;rounded=0;orthogonalLoop=1;jettySize=auto;html=1;exitX=0.999;exitY=0.143;exitDx=0;exitDy=0;fontFamily=Courier New;fontSize=13;endArrow=none;endFill=0;exitPerimeter=0;" parent="1" edge="1">
          <mxGeometry relative="1" as="geometry">
            <mxPoint x="506" y="654" as="targetPoint" />
            <mxPoint x="427" y="654" as="sourcePoint" />
            <Array as="points">
              <mxPoint x="475.28" y="654.11" />
              <mxPoint x="515.28" y="654.11" />
            </Array>
          </mxGeometry>
        </mxCell>
        <mxCell id="XHbNjHFwVEkmWZbRaQx7-75" style="edgeStyle=orthogonalEdgeStyle;rounded=0;orthogonalLoop=1;jettySize=auto;html=1;exitX=0.999;exitY=0.143;exitDx=0;exitDy=0;fontFamily=Courier New;fontSize=13;endArrow=none;endFill=0;exitPerimeter=0;" parent="1" edge="1">
          <mxGeometry relative="1" as="geometry">
            <mxPoint x="427" y="815" as="targetPoint" />
            <mxPoint x="345" y="815" as="sourcePoint" />
            <Array as="points">
              <mxPoint x="406.28" y="815.11" />
              <mxPoint x="446.28" y="815.11" />
            </Array>
          </mxGeometry>
        </mxCell>
        <mxCell id="XHbNjHFwVEkmWZbRaQx7-77" style="edgeStyle=orthogonalEdgeStyle;rounded=0;orthogonalLoop=1;jettySize=auto;html=1;exitX=0.999;exitY=0.143;exitDx=0;exitDy=0;fontFamily=Courier New;fontSize=13;endArrow=none;endFill=0;exitPerimeter=0;" parent="1" edge="1">
          <mxGeometry relative="1" as="geometry">
            <mxPoint x="506" y="484.0000000000001" as="targetPoint" />
            <mxPoint x="427" y="484.0000000000001" as="sourcePoint" />
            <Array as="points">
              <mxPoint x="475.28" y="484.11" />
              <mxPoint x="515.28" y="484.11" />
            </Array>
          </mxGeometry>
        </mxCell>
        <mxCell id="XHbNjHFwVEkmWZbRaQx7-78" style="edgeStyle=orthogonalEdgeStyle;rounded=0;orthogonalLoop=1;jettySize=auto;html=1;exitX=0.999;exitY=0.143;exitDx=0;exitDy=0;fontFamily=Courier New;fontSize=13;endArrow=none;endFill=0;exitPerimeter=0;" parent="1" edge="1">
          <mxGeometry relative="1" as="geometry">
            <mxPoint x="427" y="402.0000000000001" as="targetPoint" />
            <mxPoint x="344.9999999999999" y="402.0000000000001" as="sourcePoint" />
            <Array as="points">
              <mxPoint x="396.28" y="402.11" />
              <mxPoint x="436.28" y="402.11" />
            </Array>
          </mxGeometry>
        </mxCell>
        <mxCell id="XHbNjHFwVEkmWZbRaQx7-79" style="edgeStyle=orthogonalEdgeStyle;rounded=0;orthogonalLoop=1;jettySize=auto;html=1;exitX=0.999;exitY=0.143;exitDx=0;exitDy=0;fontFamily=Courier New;fontSize=13;endArrow=none;endFill=0;exitPerimeter=0;" parent="1" edge="1">
          <mxGeometry relative="1" as="geometry">
            <mxPoint x="427" y="225.0000000000001" as="targetPoint" />
            <mxPoint x="344.9999999999999" y="225.0000000000001" as="sourcePoint" />
            <Array as="points">
              <mxPoint x="396.28" y="225.11" />
              <mxPoint x="436.28" y="225.11" />
            </Array>
          </mxGeometry>
        </mxCell>
        <mxCell id="XHbNjHFwVEkmWZbRaQx7-92" value="" style="group" parent="1" vertex="1" connectable="0">
          <mxGeometry x="65" y="159.99999999999994" width="280" height="130.59000000000003" as="geometry" />
        </mxCell>
        <mxCell id="XHbNjHFwVEkmWZbRaQx7-1" value="&lt;b&gt;Exp_unique_ID: hex&lt;/b&gt;&lt;br&gt;Default_configuration: dict&lt;br&gt;Search_space_size: int&lt;br&gt;Search_space_object: bytes" style="rounded=0;align=left;verticalAlign=top;spacing=2;spacingLeft=5;spacingBottom=0;glass=0;shadow=0;sketch=0;fontFamily=Courier New;fontSize=12;labelBackgroundColor=none;whiteSpace=wrap;html=1;" parent="XHbNjHFwVEkmWZbRaQx7-92" vertex="1">
          <mxGeometry y="50.59000000000003" width="280" height="80" as="geometry" />
        </mxCell>
        <mxCell id="XHbNjHFwVEkmWZbRaQx7-2" value="Search_space" style="rounded=0;whiteSpace=wrap;html=1;fillColor=#1ba1e2;strokeColor=#000000;sketch=0;fontStyle=1;fontColor=#ffffff;fontSize=13;" parent="XHbNjHFwVEkmWZbRaQx7-92" vertex="1">
          <mxGeometry y="20" width="280" height="30.588235294117645" as="geometry" />
        </mxCell>
        <mxCell id="XHbNjHFwVEkmWZbRaQx7-83" value="One per experiment" style="text;html=1;strokeColor=none;fillColor=none;align=center;verticalAlign=middle;whiteSpace=wrap;rounded=0;shadow=0;glass=0;labelBackgroundColor=none;sketch=0;fontFamily=Helvetica;fontSize=13;fontStyle=2" parent="XHbNjHFwVEkmWZbRaQx7-92" vertex="1">
          <mxGeometry width="280" height="23" as="geometry" />
        </mxCell>
        <mxCell id="XHbNjHFwVEkmWZbRaQx7-93" value="" style="group" parent="1" vertex="1" connectable="0">
          <mxGeometry x="506" y="159.99999999999994" width="280" height="250.58999999999997" as="geometry" />
        </mxCell>
        <mxCell id="XHbNjHFwVEkmWZbRaQx7-84" value="One per experiment" style="text;html=1;strokeColor=none;fillColor=none;align=center;verticalAlign=middle;whiteSpace=wrap;rounded=0;shadow=0;glass=0;labelBackgroundColor=none;sketch=0;fontFamily=Helvetica;fontSize=13;fontStyle=2" parent="XHbNjHFwVEkmWZbRaQx7-93" vertex="1">
          <mxGeometry width="280" height="23" as="geometry" />
        </mxCell>
        <mxCell id="XHbNjHFwVEkmWZbRaQx7-37" value="&lt;b&gt;Exp_unique_ID: hex&lt;/b&gt;&lt;br&gt;&lt;div&gt;Exp_ID: hex&lt;/div&gt;&lt;div&gt;DateStarted: date&lt;/div&gt;&lt;div&gt;Context: dict&lt;/div&gt;&lt;div&gt;ConfigurationSelection: dict&lt;/div&gt;&lt;div&gt;TaskConfiguration: dict&lt;/div&gt;&lt;div&gt;RepetitionManager: dict&lt;/div&gt;&lt;div&gt;StopCondition: dict&lt;br&gt;&lt;/div&gt;&lt;div&gt;DefaultConfigurationHandler: dict&lt;/div&gt;&lt;div&gt;TransferLearning: dict&lt;/div&gt;&lt;div&gt;ExperimentObject: bytes&lt;br&gt;&lt;/div&gt;" style="rounded=0;align=left;verticalAlign=top;spacing=2;spacingLeft=5;spacingBottom=0;glass=0;shadow=0;sketch=0;fontFamily=Courier New;fontSize=12;labelBackgroundColor=none;whiteSpace=wrap;html=1;" parent="XHbNjHFwVEkmWZbRaQx7-93" vertex="1">
          <mxGeometry y="50.59" width="280" height="200" as="geometry" />
        </mxCell>
        <mxCell id="XHbNjHFwVEkmWZbRaQx7-38" value="Experiment_description" style="rounded=0;whiteSpace=wrap;html=1;fillColor=#1ba1e2;strokeColor=#000000;sketch=0;fontStyle=1;fontColor=#ffffff;fontSize=13;" parent="XHbNjHFwVEkmWZbRaQx7-93" vertex="1">
          <mxGeometry y="20" width="280" height="30.59" as="geometry" />
        </mxCell>
        <mxCell id="XHbNjHFwVEkmWZbRaQx7-94" value="" style="group" parent="1" vertex="1" connectable="0">
          <mxGeometry x="65" y="319.99999999999994" width="280" height="250.61681818181825" as="geometry" />
        </mxCell>
        <mxCell id="XHbNjHFwVEkmWZbRaQx7-85" value="&lt;span&gt;m&lt;/span&gt; per experiment (&lt;span&gt;m: number of configurations)&lt;br&gt;&lt;/span&gt;" style="text;html=1;strokeColor=none;fillColor=none;align=center;verticalAlign=middle;whiteSpace=wrap;rounded=0;shadow=0;glass=0;labelBackgroundColor=none;sketch=0;fontFamily=Helvetica;fontSize=13;fontStyle=2" parent="XHbNjHFwVEkmWZbRaQx7-94" vertex="1">
          <mxGeometry width="280" height="23" as="geometry" />
        </mxCell>
        <mxCell id="XHbNjHFwVEkmWZbRaQx7-46" value="&lt;b&gt;Configuration_ID: hex&lt;/b&gt;&lt;br&gt;&lt;div&gt;Exp_unique_ID: hex&lt;/div&gt;&lt;div&gt;Parameters: dict&lt;/div&gt;&lt;div&gt;Type: int&lt;/div&gt;&lt;div&gt;Status: dict&lt;/div&gt;&lt;div&gt;Results: dict&lt;br&gt;&lt;/div&gt;&lt;div&gt;Predicted_result: dict&lt;/div&gt;&lt;div&gt;Standard_deviation: list&lt;/div&gt;&lt;div&gt;Number_of_failed_tasks: int&lt;br&gt;&lt;/div&gt;&lt;div&gt;ConfigurationObject: bytes&lt;br&gt;&lt;/div&gt;" style="rounded=0;align=left;verticalAlign=top;spacing=2;spacingLeft=5;spacingBottom=0;glass=0;shadow=0;sketch=0;fontFamily=Courier New;fontSize=12;labelBackgroundColor=none;whiteSpace=wrap;html=1;" parent="XHbNjHFwVEkmWZbRaQx7-94" vertex="1">
          <mxGeometry y="51.98045454545462" width="280" height="198.63636363636363" as="geometry" />
        </mxCell>
        <mxCell id="XHbNjHFwVEkmWZbRaQx7-47" value="Configuration" style="rounded=0;whiteSpace=wrap;html=1;fillColor=#1ba1e2;strokeColor=#000000;sketch=0;fontStyle=1;fontColor=#ffffff;fontSize=13;" parent="XHbNjHFwVEkmWZbRaQx7-94" vertex="1">
          <mxGeometry y="20.000000000000057" width="280" height="31.978609625668447" as="geometry" />
        </mxCell>
        <mxCell id="XHbNjHFwVEkmWZbRaQx7-95" value="" style="group" parent="1" vertex="1" connectable="0">
          <mxGeometry x="506" y="419.99999999999994" width="280" height="150.58999999999997" as="geometry" />
        </mxCell>
        <mxCell id="XHbNjHFwVEkmWZbRaQx7-86" value="One per experiment" style="text;html=1;strokeColor=none;fillColor=none;align=center;verticalAlign=middle;whiteSpace=wrap;rounded=0;shadow=0;glass=0;labelBackgroundColor=none;sketch=0;fontFamily=Helvetica;fontSize=13;fontStyle=2" parent="XHbNjHFwVEkmWZbRaQx7-95" vertex="1">
          <mxGeometry width="280" height="23" as="geometry" />
        </mxCell>
        <mxCell id="XHbNjHFwVEkmWZbRaQx7-43" value="&lt;b&gt;Exp_unique_ID: hex&lt;/b&gt;&lt;br&gt;&lt;div&gt;Number_of_measured_configs: int&lt;/div&gt;&lt;div&gt;Number_of_bad_configs: int&lt;/div&gt;&lt;div&gt;Current_solution: dict&lt;/div&gt;&lt;div&gt;is_model_valid: boolean&lt;/div&gt;&lt;div&gt;&lt;span class=&quot;mx_EventTile_body&quot; dir=&quot;auto&quot;&gt;Number_of_measured_tasks: int&lt;br&gt;&lt;/span&gt;&lt;/div&gt;" style="rounded=0;align=left;verticalAlign=top;spacing=2;spacingLeft=5;spacingBottom=0;glass=0;shadow=0;sketch=0;fontFamily=Courier New;fontSize=12;labelBackgroundColor=none;whiteSpace=wrap;html=1;" parent="XHbNjHFwVEkmWZbRaQx7-95" vertex="1">
          <mxGeometry y="50.59000000000003" width="280" height="100" as="geometry" />
        </mxCell>
        <mxCell id="XHbNjHFwVEkmWZbRaQx7-44" value="Experiment_state" style="rounded=0;whiteSpace=wrap;html=1;fillColor=#1ba1e2;strokeColor=#006EAF;sketch=0;fontStyle=1;fontColor=#ffffff;fontSize=13;" parent="XHbNjHFwVEkmWZbRaQx7-95" vertex="1">
          <mxGeometry y="20.000000000000057" width="280" height="30.588235294117645" as="geometry" />
        </mxCell>
        <mxCell id="XHbNjHFwVEkmWZbRaQx7-96" value="" style="group" parent="1" vertex="1" connectable="0">
          <mxGeometry x="65" y="600" width="280" height="130.59000000000003" as="geometry" />
        </mxCell>
        <mxCell id="XHbNjHFwVEkmWZbRaQx7-87" value="&lt;span&gt;t&lt;/span&gt; per configuration (&lt;span&gt;t: number of tasks)&lt;br&gt;&lt;/span&gt;" style="text;html=1;strokeColor=none;fillColor=none;align=center;verticalAlign=middle;whiteSpace=wrap;rounded=0;shadow=0;glass=0;labelBackgroundColor=none;sketch=0;fontFamily=Helvetica;fontSize=13;fontStyle=2" parent="XHbNjHFwVEkmWZbRaQx7-96" vertex="1">
          <mxGeometry width="280" height="23" as="geometry" />
        </mxCell>
        <mxCell id="XHbNjHFwVEkmWZbRaQx7-40" value="&lt;div&gt;&lt;b&gt;Task_ID: hex&lt;/b&gt;&lt;/div&gt;&lt;div&gt;Configuration_ID: hex&lt;/div&gt;&lt;div&gt;Task: dict&lt;br&gt;&lt;/div&gt;" style="rounded=0;align=left;verticalAlign=top;spacing=2;spacingLeft=5;spacingBottom=0;glass=0;shadow=0;sketch=0;fontFamily=Courier New;fontSize=12;labelBackgroundColor=none;whiteSpace=wrap;html=1;" parent="XHbNjHFwVEkmWZbRaQx7-96" vertex="1">
          <mxGeometry y="50.59000000000003" width="280" height="80" as="geometry" />
        </mxCell>
        <mxCell id="XHbNjHFwVEkmWZbRaQx7-41" value="Task" style="rounded=0;whiteSpace=wrap;html=1;fillColor=#1ba1e2;strokeColor=#006EAF;sketch=0;fontStyle=1;fontColor=#ffffff;fontSize=13;" parent="XHbNjHFwVEkmWZbRaQx7-96" vertex="1">
          <mxGeometry y="20" width="280" height="30.588235294117645" as="geometry" />
        </mxCell>
        <mxCell id="XHbNjHFwVEkmWZbRaQx7-97" value="" style="group" parent="1" vertex="1" connectable="0">
          <mxGeometry x="506" y="590" width="280" height="150.59000000000003" as="geometry" />
        </mxCell>
        <mxCell id="XHbNjHFwVEkmWZbRaQx7-88" value="One per experiment" style="text;html=1;strokeColor=none;fillColor=none;align=center;verticalAlign=middle;whiteSpace=wrap;rounded=0;shadow=0;glass=0;labelBackgroundColor=none;sketch=0;fontFamily=Helvetica;fontSize=13;fontStyle=2" parent="XHbNjHFwVEkmWZbRaQx7-97" vertex="1">
          <mxGeometry width="280" height="23" as="geometry" />
        </mxCell>
        <mxCell id="XHbNjHFwVEkmWZbRaQx7-54" value="&lt;b&gt;Exp_unique_ID: hex&lt;/b&gt;&lt;br&gt;&lt;div&gt;Models_dumps: list&lt;/div&gt;&lt;div&gt;Scenario: dict&lt;/div&gt;&lt;div&gt;Samples: list&lt;/div&gt;&lt;div&gt;Improvement_curve: list&lt;br&gt;&lt;/div&gt;" style="rounded=0;align=left;verticalAlign=top;spacing=2;spacingLeft=5;spacingBottom=0;glass=0;shadow=0;sketch=0;fontFamily=Courier New;fontSize=12;labelBackgroundColor=none;whiteSpace=wrap;html=1;" parent="XHbNjHFwVEkmWZbRaQx7-97" vertex="1">
          <mxGeometry y="50.59000000000003" width="280" height="100" as="geometry" />
        </mxCell>
        <mxCell id="XHbNjHFwVEkmWZbRaQx7-55" value="Transfer_learning_info" style="rounded=0;whiteSpace=wrap;html=1;fillColor=#1ba1e2;strokeColor=#006EAF;sketch=0;fontStyle=1;fontColor=#ffffff;fontSize=13;" parent="XHbNjHFwVEkmWZbRaQx7-97" vertex="1">
          <mxGeometry y="20" width="280" height="30.588235294117645" as="geometry" />
        </mxCell>
        <mxCell id="XHbNjHFwVEkmWZbRaQx7-98" value="" style="group" parent="1" vertex="1" connectable="0">
          <mxGeometry x="65" y="750" width="280" height="130.59000000000003" as="geometry" />
        </mxCell>
        <mxCell id="XHbNjHFwVEkmWZbRaQx7-90" value="One per experiment" style="text;html=1;strokeColor=none;fillColor=none;align=center;verticalAlign=middle;whiteSpace=wrap;rounded=0;shadow=0;glass=0;labelBackgroundColor=none;sketch=0;fontFamily=Helvetica;fontSize=13;fontStyle=2" parent="XHbNjHFwVEkmWZbRaQx7-98" vertex="1">
          <mxGeometry width="280" height="23" as="geometry" />
        </mxCell>
        <mxCell id="XHbNjHFwVEkmWZbRaQx7-57" value="&lt;div&gt;&lt;b&gt;Exp_unique_ID: hex&lt;br&gt;&lt;/b&gt;&lt;/div&gt;&lt;div&gt;parameter_control_info: dict&lt;br&gt;&lt;/div&gt;" style="rounded=0;align=left;verticalAlign=top;spacing=2;spacingLeft=5;spacingBottom=0;glass=0;shadow=0;sketch=0;fontFamily=Courier New;fontSize=12;labelBackgroundColor=none;whiteSpace=wrap;html=1;" parent="XHbNjHFwVEkmWZbRaQx7-98" vertex="1">
          <mxGeometry y="50.59000000000003" width="280" height="80" as="geometry" />
        </mxCell>
        <mxCell id="XHbNjHFwVEkmWZbRaQx7-58" value="Parameter_control_info" style="rounded=0;whiteSpace=wrap;html=1;fillColor=#1ba1e2;strokeColor=#006EAF;sketch=0;fontStyle=1;fontColor=#ffffff;fontSize=13;" parent="XHbNjHFwVEkmWZbRaQx7-98" vertex="1">
          <mxGeometry y="20" width="280" height="30.588235294117645" as="geometry" />
        </mxCell>
      </root>
    </mxGraphModel>
  </diagram>
</mxfile>
